<svg width="34" height="34" viewBox="0 0 34 34" fill="none" xmlns="http://www.w3.org/2000/svg">
<g id="basil:instagram-solid">
<path id="Vector" d="M17.0002 12.3955C15.7791 12.3955 14.608 12.8806 13.7445 13.744C12.8811 14.6075 12.396 15.7786 12.396 16.9997C12.396 18.2208 12.8811 19.3919 13.7445 20.2553C14.608 21.1188 15.7791 21.6038 17.0002 21.6038C18.2213 21.6038 19.3924 21.1188 20.2558 20.2553C21.1192 19.3919 21.6043 18.2208 21.6043 16.9997C21.6043 15.7786 21.1192 14.6075 20.2558 13.744C19.3924 12.8806 18.2213 12.3955 17.0002 12.3955Z" fill="white"/>
<path id="Vector_2" fill-rule="evenodd" clip-rule="evenodd" d="M9.59066 4.36641C14.515 3.82057 19.4846 3.82057 24.409 4.36641C27.0992 4.66675 29.2682 6.78466 29.5841 9.48483C30.168 14.4781 30.168 19.5224 29.5841 24.5157C29.2682 27.2158 27.0992 29.3337 24.4104 29.6355C19.4856 30.1815 14.5155 30.1815 9.59066 29.6355C6.90041 29.3337 4.73149 27.2158 4.41558 24.5171C3.83153 19.5233 3.83153 14.4786 4.41558 9.48483C4.73149 6.78466 6.90041 4.66675 9.59066 4.36641ZM24.0832 8.50025C23.7074 8.50025 23.3471 8.6495 23.0814 8.91518C22.8157 9.18085 22.6665 9.54119 22.6665 9.91691C22.6665 10.2926 22.8157 10.653 23.0814 10.9186C23.3471 11.1843 23.7074 11.3336 24.0832 11.3336C24.4589 11.3336 24.8192 11.1843 25.0849 10.9186C25.3506 10.653 25.4998 10.2926 25.4998 9.91691C25.4998 9.54119 25.3506 9.18085 25.0849 8.91518C24.8192 8.6495 24.4589 8.50025 24.0832 8.50025ZM10.2707 17.0002C10.2707 15.2156 10.9796 13.504 12.2416 12.242C13.5036 10.98 15.2151 10.2711 16.9998 10.2711C18.7845 10.2711 20.4961 10.98 21.7581 12.242C23.02 13.504 23.729 15.2156 23.729 17.0002C23.729 18.7849 23.02 20.4965 21.7581 21.7585C20.4961 23.0205 18.7845 23.7294 16.9998 23.7294C15.2151 23.7294 13.5036 23.0205 12.2416 21.7585C10.9796 20.4965 10.2707 18.7849 10.2707 17.0002Z" fill="white"/>
</g>
</svg>
