<svg width="34" height="34" viewBox="0 0 34 34" fill="none" xmlns="http://www.w3.org/2000/svg">
<path d="M17 12.3955C15.7789 12.3955 14.6079 12.8806 13.7444 13.744C12.881 14.6075 12.3959 15.7786 12.3959 16.9997C12.3959 18.2208 12.881 19.3919 13.7444 20.2553C14.6079 21.1188 15.7789 21.6038 17 21.6038C18.2211 21.6038 19.3922 21.1188 20.2557 20.2553C21.1191 19.3919 21.6042 18.2208 21.6042 16.9997C21.6042 15.7786 21.1191 14.6075 20.2557 13.744C19.3922 12.8806 18.2211 12.3955 17 12.3955Z" fill="white"/>
<path fill-rule="evenodd" clip-rule="evenodd" d="M9.59078 4.36641C14.5151 3.82057 19.4847 3.82057 24.4091 4.36641C27.0994 4.66675 29.2683 6.78466 29.5842 9.48483C30.1682 14.4781 30.1682 19.5224 29.5842 24.5157C29.2683 27.2158 27.0994 29.3337 24.4105 29.6355C19.4857 30.1815 14.5156 30.1815 9.59078 29.6355C6.90053 29.3337 4.73162 27.2158 4.4157 24.5171C3.83165 19.5233 3.83165 14.4786 4.4157 9.48483C4.73162 6.78466 6.90053 4.66675 9.59078 4.36641ZM24.0833 8.50025C23.7076 8.50025 23.3472 8.6495 23.0815 8.91518C22.8159 9.18085 22.6666 9.54119 22.6666 9.91691C22.6666 10.2926 22.8159 10.653 23.0815 10.9186C23.3472 11.1843 23.7076 11.3336 24.0833 11.3336C24.459 11.3336 24.8193 11.1843 25.085 10.9186C25.3507 10.653 25.4999 10.2926 25.4999 9.91691C25.4999 9.54119 25.3507 9.18085 25.085 8.91518C24.8193 8.6495 24.459 8.50025 24.0833 8.50025ZM10.2708 17.0002C10.2708 15.2156 10.9797 13.504 12.2417 12.242C13.5037 10.98 15.2153 10.2711 16.9999 10.2711C18.7846 10.2711 20.4962 10.98 21.7582 12.242C23.0201 13.504 23.7291 15.2156 23.7291 17.0002C23.7291 18.7849 23.0201 20.4965 21.7582 21.7585C20.4962 23.0205 18.7846 23.7294 16.9999 23.7294C15.2153 23.7294 13.5037 23.0205 12.2417 21.7585C10.9797 20.4965 10.2708 18.7849 10.2708 17.0002Z" fill="white"/>
</svg>
