<svg width="34" height="34" viewBox="0 0 34 34" fill="none" xmlns="http://www.w3.org/2000/svg">
<path d="M31.8183 8.50033C30.7275 8.99616 29.5516 9.32199 28.3333 9.47783C29.58 8.72699 30.5433 7.53699 30.9966 6.10616C29.8208 6.81449 28.5175 7.31033 27.1433 7.59366C26.0241 6.37533 24.4516 5.66699 22.6666 5.66699C19.3375 5.66699 16.6175 8.38699 16.6175 11.7445C16.6175 12.2262 16.6741 12.6937 16.7733 13.1328C11.73 12.8778 7.23914 10.4553 4.24997 6.78616C3.72581 7.67866 3.42831 8.72699 3.42831 9.83199C3.42831 11.9428 4.49081 13.8128 6.13414 14.8753C5.12831 14.8753 4.19331 14.592 3.37164 14.167V14.2095C3.37164 17.1562 5.46831 19.6212 8.24497 20.1737C7.3535 20.4176 6.41761 20.4516 5.51081 20.2728C5.89558 21.4805 6.64915 22.5372 7.66558 23.2945C8.68201 24.0517 9.91019 24.4714 11.1775 24.4945C9.02928 26.1951 6.36647 27.1144 3.62664 27.1012C3.14497 27.1012 2.66331 27.0728 2.18164 27.0162C4.87331 28.7445 8.07497 29.7503 11.5033 29.7503C22.6666 29.7503 28.8008 20.4853 28.8008 12.4528C28.8008 12.1837 28.8008 11.9287 28.7866 11.6595C29.9766 10.8095 30.9966 9.73283 31.8183 8.50033Z" fill="white"/>
</svg>
